<?xml version="1.0" encoding="UTF-8" standalone="no"?>
<!DOCTYPE svg PUBLIC "-//W3C//DTD SVG 1.1//EN" "http://www.w3.org/Graphics/SVG/1.1/DTD/svg11.dtd">
<svg version="1.1" xmlns="http://www.w3.org/2000/svg" xmlns:xlink="http://www.w3.org/1999/xlink" preserveAspectRatio="xMidYMid meet" viewBox="185.085 136.31230769230768 203.96 203.95999999999998" width="199.96" height="199.96"><defs><path d="M356.78 308.01C317.75 347.03 254.38 347.03 215.35 308.01C176.33 268.98 176.33 205.61 215.35 166.58C254.38 127.56 317.75 127.56 356.78 166.58C395.8 205.61 395.8 268.98 356.78 308.01Z" id="e1pDXF8eQl"></path><linearGradient id="gradiento5I3resZO" gradientUnits="userSpaceOnUse" x1="286.07" y1="237.3" x2="288.38" y2="239.61"><stop style="stop-color: #e9e9e9;stop-opacity: 1" offset="0%"></stop><stop style="stop-color: #010000;stop-opacity: 1" offset="100%"></stop></linearGradient><path d="M286.07 286.97L314.63 266.97L314.63 279.65L344.92 279.65L344.92 294.32L314.63 294.32L314.63 306.97L286.07 286.97Z" id="f1Qii4Awdv"></path><path d="M286.07 194.18L257.5 174.18L257.5 186.86L227.21 186.86L227.21 201.53L257.5 201.53L257.5 214.18L286.07 194.18Z" id="i2qwvJd9Y"></path></defs><g><g><use xlink:href="#e1pDXF8eQl" opacity="1" fill="url(#gradiento5I3resZO)"></use><g><use xlink:href="#e1pDXF8eQl" opacity="1" fill-opacity="0" stroke="#000000" stroke-width="1" stroke-opacity="0"></use></g></g><g><use xlink:href="#f1Qii4Awdv" opacity="1" fill="#d2d2d2" fill-opacity="1"></use><g><use xlink:href="#f1Qii4Awdv" opacity="1" fill-opacity="0" stroke="#000000" stroke-width="1" stroke-opacity="0"></use></g></g><g><use xlink:href="#i2qwvJd9Y" opacity="1" fill="#000000" fill-opacity="1"></use><g><use xlink:href="#i2qwvJd9Y" opacity="1" fill-opacity="0" stroke="#000000" stroke-width="1" stroke-opacity="0"></use></g></g></g></svg>