<?xml version="1.0" encoding="UTF-8" standalone="no"?>
<!DOCTYPE svg PUBLIC "-//W3C//DTD SVG 1.1//EN" "http://www.w3.org/Graphics/SVG/1.1/DTD/svg11.dtd">
<svg version="1.1" xmlns="http://www.w3.org/2000/svg" xmlns:xlink="http://www.w3.org/1999/xlink" preserveAspectRatio="xMidYMid meet" viewBox="319 304.5048076923076 184.99999999999977 185" width="175" height="175"><defs><path d="M495 393C495 441.3 455.79 480.5 407.5 480.5C359.21 480.5 320 441.3 320 393C320 344.71 359.21 305.5 407.5 305.5C455.79 305.5 495 344.71 495 393Z" id="a4SnJCZT9G"></path><radialGradient id="gradientb1vnGzI7A" gradientUnits="userSpaceOnUse" cx="404.23" cy="397.86" dx="404.23" dy="572.86" r="175"><stop style="stop-color: #4a4a4a;stop-opacity: 1" offset="0%"></stop><stop style="stop-color: #010000;stop-opacity: 1" offset="100%"></stop></radialGradient></defs><g><g><g><filter id="shadow16708353" x="302" y="287.5" width="215" height="215" filterUnits="userSpaceOnUse" primitiveUnits="userSpaceOnUse"><feFlood></feFlood><feComposite in2="SourceAlpha" operator="in"></feComposite><feGaussianBlur stdDeviation="2"></feGaussianBlur><feOffset dx="4" dy="4" result="afterOffset"></feOffset><feFlood flood-color="#000000" flood-opacity="0.5"></feFlood><feComposite in2="afterOffset" operator="in"></feComposite><feMorphology operator="dilate" radius="1"></feMorphology><feComposite in2="SourceAlpha" operator="out"></feComposite></filter><path d="M495 393C495 441.3 455.79 480.5 407.5 480.5C359.21 480.5 320 441.3 320 393C320 344.71 359.21 305.5 407.5 305.5C455.79 305.5 495 344.71 495 393Z" id="fUnTMKE1S" fill="white" fill-opacity="1" filter="url(#shadow16708353)"></path></g><use xlink:href="#a4SnJCZT9G" opacity="1" fill="url(#gradientb1vnGzI7A)"></use><g><use xlink:href="#a4SnJCZT9G" opacity="1" fill-opacity="0" stroke="#000000" stroke-width="1" stroke-opacity="1"></use></g></g></g></svg>