<?xml version="1.0" encoding="UTF-8" standalone="no"?>
<!DOCTYPE svg PUBLIC "-//W3C//DTD SVG 1.1//EN" "http://www.w3.org/Graphics/SVG/1.1/DTD/svg11.dtd">
<svg version="1.1" xmlns="http://www.w3.org/2000/svg" xmlns:xlink="http://www.w3.org/1999/xlink" preserveAspectRatio="xMidYMid meet" viewBox="170.36538461538464 117.64903846153828 183.49999999999977 183.5" width="175" height="175"><defs><path d="M345.87 205.65C345.87 253.94 306.66 293.15 258.37 293.15C210.07 293.15 170.87 253.94 170.87 205.65C170.87 157.36 210.07 118.15 258.37 118.15C306.66 118.15 345.87 157.36 345.87 205.65Z" id="d1dXJMeuCg"></path><radialGradient id="gradientd2onNJmsFj" gradientUnits="userSpaceOnUse" cx="277.16" cy="221.13" dx="277.16" dy="396.13" r="175"><stop style="stop-color: #ffffff;stop-opacity: 1" offset="0%"></stop><stop style="stop-color: #010000;stop-opacity: 1" offset="100%"></stop></radialGradient></defs><g><g><g><filter id="shadow8926534" x="153.87" y="101.15" width="213" height="213" filterUnits="userSpaceOnUse" primitiveUnits="userSpaceOnUse"><feFlood></feFlood><feComposite in2="SourceAlpha" operator="in"></feComposite><feGaussianBlur stdDeviation="2"></feGaussianBlur><feOffset dx="4" dy="4" result="afterOffset"></feOffset><feFlood flood-color="#000000" flood-opacity="0.5"></feFlood><feComposite in2="afterOffset" operator="in"></feComposite><feMorphology operator="dilate" radius="0"></feMorphology><feComposite in2="SourceAlpha" operator="out"></feComposite></filter><path d="M345.87 205.65C345.87 253.94 306.66 293.15 258.37 293.15C210.07 293.15 170.87 253.94 170.87 205.65C170.87 157.36 210.07 118.15 258.37 118.15C306.66 118.15 345.87 157.36 345.87 205.65Z" id="cAgpYSQhG" fill="white" fill-opacity="1" filter="url(#shadow8926534)"></path></g><use xlink:href="#d1dXJMeuCg" opacity="1" fill="url(#gradientd2onNJmsFj)"></use><g><use xlink:href="#d1dXJMeuCg" opacity="1" fill-opacity="0" stroke="#000000" stroke-width="1" stroke-opacity="1"></use></g></g></g></svg>